<svg width="19" height="19" viewBox="0 0 19 19" fill="none" xmlns="http://www.w3.org/2000/svg">
<path d="M17.0013 10.7667L17.0013 10.7666L2.71058 17.6412C2.55492 17.7211 2.37708 17.7605 2.19384 17.7476L17.0013 10.7667ZM17.0013 10.7667L17.0128 10.7609M17.0013 10.7667L17.0128 10.7609M17.0128 10.7609C17.2539 10.6398 17.441 10.4486 17.5649 10.2289L16.9118 9.86034L17.5649 10.2289C17.6888 10.0095 17.75 9.76227 17.75 9.5168C17.75 9.27133 17.6888 9.02407 17.5649 8.80466L16.9118 9.17326L17.5649 8.80465C17.441 8.58498 17.2539 8.39378 17.0128 8.27266L17.0128 8.27259L17.0028 8.26773L2.70326 1.34948C2.2934 1.1478 1.88264 1.27839 1.63249 1.49277C1.3911 1.69965 1.25 2.00966 1.25 2.33564L1.25 6.7592L1.25 6.75984C1.25019 6.97823 1.31493 7.20197 1.44987 7.39216L1.45 7.39236C1.58616 7.58413 1.79445 7.73998 2.05475 7.7979L2.05554 7.79807L9.81291 9.51543L2.05586 11.2328L2.05581 11.2328C1.79533 11.2905 1.58654 11.4463 1.45 11.6386C1.31468 11.8292 1.25 12.0535 1.25 12.272V16.6976H1.24997L1.25003 16.7046C1.25152 16.8623 1.28675 17.0213 1.35735 17.1683L1.35748 17.1686M17.0128 10.7609L1.35748 17.1686M1.35748 17.1686C1.42812 17.3156 1.5355 17.4528 1.67986 17.5584L1.35748 17.1686ZM1.68026 17.5587C1.82524 17.6647 2.00143 17.734 2.1932 17.7476L1.68026 17.5587Z" stroke="white" stroke-width="1.5" stroke-linecap="round" stroke-linejoin="round"/>
</svg>
